# xmcd
#
# Track frame offsets: 
#        150
#        13772
#        28913
#        42357
#        55437
#        76610
#        104576
#        121404
#        141796
#        162779
#        188873
#        200805
#        212557
#
# Disc length: 2895 seconds
#
# Revision: 0
# Processed by: cddbd v1.5.2PL0 Copyright (c) Steve Scherf et al.
# Submitted via: ExactAudioCopy v0.99pb5
#
DISCID=b80b4d0d
DTITLE=Barcelona Bluegrass Band - Barcelona Bluegrass Band
DYEAR=1900
DGENRE=Bluegrass
TTITLE0=Blowing Groundspeed
TTITLE1=Angeline The Baker
TTITLE2=EMD
TTITLE3=El Pont d'Oriol
TTITLE4=O'Banion's Wake
TTITLE5=Joc de Jigs i Reels
TTITLE6=Bel's Jam
TTITLE7=Are you Kiddin' ...Richard?
TTITLE8=Ilberri Swing
TTITLE9=Orange Blossom Special
TTITLE10=Old Dangerfield
TTITLE11=Cluck Old Hen
TTITLE12=Hidden Track
EXTD=
EXTT0=
EXTT1=
EXTT2=
EXTT3=
EXTT4=
EXTT5=
EXTT6=
EXTT7=
EXTT8=
EXTT9=
EXTT10=
EXTT11=
EXTT12=
PLAYORDER=
